<svg xmlns="http://www.w3.org/2000/svg" width="30" height="30" viewBox="0 0 30 30">
    <defs>
        <style>.cls-1{fill:none;stroke:#4d4d4d;stroke-miterlimit:10;}</style>
    </defs>
    <title>logohdpi</title>
    <g id="Calque_2" data-name="Calque 2">
        <g id="Calque_1-2" data-name="Calque 1">
            <path d="M15,0A15,15,0,1,0,30,15,15,15,0,0,0,15,0Zm0,29A14,14,0,1,1,29,15,14,14,0,0,1,15,29Z"/>
            <line class="cls-1" x1="5" y1="4.5" x2="25" y2="4.5"/>
            <line class="cls-1" x1="21.7" y1="5" x2="21.7" y2="24"/>
            <path class="cls-1" d="M21.7,24c0,2.2-3,4-6.7,4"/>
            <path class="cls-1" d="M6,22.5c0,2.2,5.3,5.5,9,5.5"/>
            <line class="cls-1" x1="23.5" y1="4.5" x2="23.5" y2="27"/>
            <line class="cls-1" x1="19.8" y1="5" x2="19.8" y2="22.3"/>
            <path class="cls-1" d="M19.8,22.3c0,2-2.2,3.7-4.8,3.7"/>
            <path class="cls-1" d="M8.8,22.5c0,2,3.5,3.5,6.2,3.5"/>
            <line class="cls-1" x1="7.5" y1="2.5" x2="22.5" y2="2.5"/>
            <path class="cls-1" d="M19.5,7.5H15.7A6.6,6.6,0,0,0,9,14a6.6,6.6,0,0,0,6.7,6.5h3.8"/>
            <path class="cls-1" d="M19.6,9.5h-3c-2.9,0-5.3,2-5.3,4.5s2.4,4.5,5.3,4.5h3"/>
            <line class="cls-1" x1="23.7" y1="7.5" x2="25.5" y2="7.5"/>
            <line class="cls-1" x1="23.7" y1="9.5" x2="25.5" y2="9.5"/>
            <line class="cls-1" x1="23.7" y1="18.5" x2="25.5" y2="18.5"/>
            <line class="cls-1" x1="23.7" y1="20.5" x2="25.5" y2="20.5"/>
        </g>
    </g>
</svg>