<svg xmlns="http://www.w3.org/2000/svg" width="50" height="50" viewBox="0 0 254.8 254.8">
    <title>logo2hdpi</title>
    <g id="Calque_2" data-name="Calque 2">
        <g id="Calque_2-2" data-name="Calque 2">
            <path d="M244.8,127.4c-.3,48.8-31.2,93.9-77.3,110.5A118.8,118.8,0,0,1,36.7,202.3C5.2,164.5,1.2,109.1,26.5,67S102.3,2.3,150.6,12.2s84.8,48.6,92.7,96.5a119.3,119.3,0,0,1,1.4,18.7c0,6.4,10,6.4,10,0-.3-53-33.7-101.1-83.4-119.7S63.1,4.9,29.2,45.9s-39,101.5-11,147.5,82.1,69.3,134.4,58.9,92.6-53.2,100.6-105a137.2,137.2,0,0,0,1.6-20C254.8,121,244.8,121,244.8,127.4Z"/>
            <path d="M29.8,57.9h194c6.4,0,6.4-10,0-10H29.8c-6.4,0-6.4,10,0,10Z"/>
            <path d="M47.8,38.9h158c6.4,0,6.4-10,0-10H47.8c-6.4,0-6.4,10,0,10Z"/>
            <path d="M157.8,52.9V205.4c0,6.4,10,6.4,10,0V52.9c0-6.4-10-6.4-10,0Z"/>
            <path d="M136.8,54.4V188c0,6.4,10,6.4,10,0V54.4c0-6.4-10-6.4-10,0Z"/>
            <path d="M141.8,182.9H20.8c-6.4,0-6.4,10,0,10h121c6.4,0,6.4-10,0-10Z"/>
            <path d="M162.8,201.4H42.8c-6.4,0-6.4,10,0,10h120c6.4,0,6.4-10,0-10Z"/>
            <path d="M181.3,98.9H162.8c-6.4,0-6.4,10,0,10h18.5c6.4,0,6.4-10,0-10Z"/>
            <path d="M141.8,98.9H81.3c-6.4,0-6.4,10,0,10h60.5c6.4,0,6.4-10,0-10Z"/>
            <path d="M75.8,103.9v84c0,6.4,10,6.4,10,0v-84c0-6.4-10-6.4-10,0Z"/>
            <path d="M75.8,209.4v29c0,6.4,10,6.4,10,0v-29c0-6.4-10-6.4-10,0Z"/>
            <path d="M80.8,242.9h97.5c6.4,0,6.4-10,0-10H80.8c-6.4,0-6.4,10,0,10Z"/>
            <path d="M162.8,127.9h18c6.4,0,6.4-10,0-10h-18c-6.4,0-6.4,10,0,10Z"/>
            <path d="M142.3,117.9h-42c-6.4,0-6.4,10,0,10h42c6.4,0,6.4-10,0-10Z"/>
            <path d="M94.8,125.4v62c0,6.4,10,6.4,10,0v-62c0-6.4-10-6.4-10,0Z"/>
            <path d="M94.8,205.9v15c0,6.4,10,6.4,10,0v-15c0-6.4-10-6.4-10,0Z"/>
            <path d="M99.8,225.9h81c6.4,0,6.4-10,0-10h-81c-6.4,0-6.4,10,0,10Z"/>
            <path d="M185.8,121.4v-17c0-6.4-10-6.4-10,0v17c0,6.4,10,6.4,10,0Z"/>
            <path d="M175.8,220.9v17c0,6.4,10,6.4,10,0v-17c0-6.4-10-6.4-10,0Z"/>
        </g>
    </g>
</svg>