<svg fill="#fff" xmlns="http://www.w3.org/2000/svg" width="50" height="50" viewBox="0 0 256.7 256.8">
    <title>Logo</title>
    <g id="Calque_2" data-name="Calque 2">
        <g id="Calque_2-2" data-name="Calque 2">
            <path d="M244.7,128.4c-.3,48.3-30.8,93.1-76.6,109.5A117.8,117.8,0,0,1,38.4,202.6C7.1,165.1,3.3,110.2,28.3,68.5s75.2-64.1,123-54.3,84.2,48.3,92,95.8a117.6,117.6,0,0,1,1.4,18.4c0,7.7,12,7.7,12,0A130,130,0,0,0,172.6,7.8C122.4-10.9,63.6,4.9,29.5,46.2S-9.9,148.5,18.3,195s82.8,69.9,135.6,59.4,93.3-53.6,101.3-105.7a139,139,0,0,0,1.6-20.2C256.8,120.7,244.8,120.7,244.7,128.4Z"/>
            <path d="M32.2,58.9h189c7.7,0,7.7-12,0-12H32.2c-7.7,0-7.7,12,0,12Z"/>
            <path d="M53.2,40.9h151c7.7,0,7.7-12,0-12H53.2c-7.7,0-7.7,12,0,12Z"/>
            <path d="M157.7,53.9V206.4c0,7.7,12,7.7,12,0V53.9c0-7.7-12-7.7-12,0Z"/>
            <path d="M136.7,55.4V189c0,7.7,12,7.7,12,0V55.4c0-7.7-12-7.7-12,0Z"/>
            <path d="M142.7,182.9H21.7c-7.7,0-7.7,12,0,12h121c7.7,0,7.7-12,0-12Z"/>
            <path d="M163.7,201.4H35.2c-7.7,0-7.7,12,0,12H163.7c7.7,0,7.7-12,0-12Z"/>
            <path d="M180.2,98.9H163.7c-7.7,0-7.7,12,0,12h16.5c7.7,0,7.7-12,0-12Z"/>
            <path d="M142.7,98.9H82.2c-7.7,0-7.7,12,0,12h60.5c7.7,0,7.7-12,0-12Z"/>
            <path d="M75.7,104.9v84c0,7.7,12,7.7,12,0v-84c0-7.7-12-7.7-12,0Z"/>
            <path d="M75.7,210.4v29c0,7.7,12,7.7,12,0v-29c0-7.7-12-7.7-12,0Z"/>
            <path d="M163.7,129.9h18c7.7,0,7.7-12,0-12h-18c-7.7,0-7.7,12,0,12Z"/>
            <path d="M143.2,117.9h-42c-7.7,0-7.7,12,0,12h42c7.7,0,7.7-12,0-12Z"/>
            <path d="M94.7,126.4v62c0,7.7,12,7.7,12,0v-62c0-7.7-12-7.7-12,0Z"/>
            <path d="M94.7,209.4v14c0,7.7,12,7.7,12,0v-14c0-7.7-12-7.7-12,0Z"/>
            <path d="M100.7,230.9h81c7.7,0,7.7-12,0-12h-81c-7.7,0-7.7,12,0,12Z"/>
            <path d="M187.7,122.4v-17c0-7.7-12-7.7-12,0v17c0,7.7,12,7.7,12,0Z"/>
            <path d="M175.7,225.4v12c0,7.7,12,7.7,12,0v-12c0-7.7-12-7.7-12,0Z"/>
            <path d="M56.7,90.4v97c0,7.7,12,7.7,12,0v-97c0-7.7-12-7.7-12,0Z"/>
            <path d="M142.7,82.9H13.2c-7.7,0-7.7,12,0,12H142.7c7.7,0,7.7-12,0-12Z"/>
            <path d="M235.7,117.9h-37l6,6v-19l-6,6h37l-6-6v19c0,7.7,12,7.7,12,0v-19a6.1,6.1,0,0,0-6-6h-37a6.1,6.1,0,0,0-6,6v19a6.1,6.1,0,0,0,6,6h37C243.5,129.9,243.5,117.9,235.7,117.9Z"/>
            <path d="M217.7,201.9h-36l6,6v-66l-6,6h36l-6-6v66c0,7.7,12,7.7,12,0v-66a6.1,6.1,0,0,0-6-6h-36a6.1,6.1,0,0,0-6,6v66a6.1,6.1,0,0,0,6,6h36C225.5,213.9,225.5,201.9,217.7,201.9Z"/>
            <path d="M102.7,174.9h40.5c7.7,0,7.7-12,0-12H102.7c-7.7,0-7.7,12,0,12Z"/>
            <path d="M21.7,76.9h121c7.7,0,7.7-12,0-12H21.7c-7.7,0-7.7,12,0,12Z"/>
            <path d="M163.7,76.9h72c7.7,0,7.7-12,0-12h-72c-7.7,0-7.7,12,0,12Z"/>
            <path d="M163.7,94.9h80c7.7,0,7.7-12,0-12h-80c-7.7,0-7.7,12,0,12Z"/>
            <path d="M36.7,89.9v97c0,7.7,12,7.7,12,0v-97c0-7.7-12-7.7-12,0Z"/>
            <path d="M205.7,206.9V143.4c0-7.7-12-7.7-12,0v63.5c0,7.7,12,7.7,12,0Z"/>
        </g>
    </g>
</svg>