<svg xmlns="http://www.w3.org/2000/svg" width="345.3" height="878.3" viewBox="0 0 345.3 878.3"><defs><style>.cls-1{fill:#020202;stroke:#000;stroke-miterlimit:10;stroke-width:0.5px;}</style></defs><title>stickman</title><g id="Calque_2" data-name="Calque 2"><g id="Calque_1-2" data-name="Calque 1"><circle id="head" class="cls-1" cx="201.5" cy="110.5" r="110.3"/><rect id="torse" x="152.5" y="200.8" width="70" height="340.4" transform="translate(14.6 -7) rotate(2.2)"/><path id="right_leg" d="M234.5,506.6h5.7a33.2,33.2,0,0,1,33.2,33.2V687.3a33.9,33.9,0,0,1-33.9,33.9h-5.7a27.7,27.7,0,0,1-27.7-27.7V535A28.4,28.4,0,0,1,234.5,506.6Z" transform="translate(770.1 1005.3) rotate(147.8)"/><path id="left_leg" d="M131.5,505.7h5.7a33.2,33.2,0,0,1,33.2,33.2V686.4a33.9,33.9,0,0,1-33.9,33.9h-5.7a27.7,27.7,0,0,1-27.7-27.7V534.1A28.4,28.4,0,0,1,131.5,505.7Z" transform="translate(20 1230.2) rotate(-156.7)"/><path id="left_foot" d="M62.1,664.1h5.7A33.2,33.2,0,0,1,101,697.3V844.8a33.9,33.9,0,0,1-33.9,33.9H61.4A27.7,27.7,0,0,1,33.7,851V692.5a28.4,28.4,0,0,1,28.4-28.4Z" transform="translate(-175.8 1506.6) rotate(-156.7)"/><path id="left_arm" d="M108.2,214.7H114a33.2,33.2,0,0,1,33.2,33.2V395.4a33.9,33.9,0,0,1-33.9,33.9h-5.7a27.7,27.7,0,0,1-27.7-27.7V243.1A28.4,28.4,0,0,1,108.2,214.7Z" transform="translate(-34 630) rotate(-135)"/><path id="right_arm" d="M256.7,234.1h5.7a33.2,33.2,0,0,1,33.2,33.2V414.8a33.9,33.9,0,0,1-33.9,33.9H256A27.7,27.7,0,0,1,228.3,421V262.5A28.4,28.4,0,0,1,256.7,234.1Z" transform="translate(-110.2 125.3) rotate(-22.4)"/><path id="right_hand" d="M291,385.3h5.7a33.2,33.2,0,0,1,33.2,33.2V566A33.9,33.9,0,0,1,296,599.9h-5.7a27.7,27.7,0,0,1-27.7-27.7V413.6A28.4,28.4,0,0,1,291,385.3Z"/><path id="left_hand" d="M39.9,189.9h5.7a33.2,33.2,0,0,1,33.2,33.2V370.6a33.9,33.9,0,0,1-33.9,33.9H39.2a27.7,27.7,0,0,1-27.7-27.7V218.3A28.4,28.4,0,0,1,39.9,189.9Z" transform="translate(136.5 583.6) rotate(171)"/><path id="right_foot" d="M291,665h5.7a33.2,33.2,0,0,1,33.2,33.2V845.7A33.9,33.9,0,0,1,296,879.6h-5.7a27.7,27.7,0,0,1-27.7-27.7V693.4A28.4,28.4,0,0,1,291,665Z" transform="translate(738.5 1471.3) rotate(168.7)"/></g></g></svg>